<mxfile host="app.diagrams.net" agent="Mozilla/5.0 (Windows NT 10.0; Win64; x64; rv:137.0) Gecko/20100101 Firefox/137.0" version="26.2.12">
  <diagram id="R2lEEEUBdFMjLlhIrx00" name="Page-1">
    <mxGraphModel dx="4330" dy="2997" grid="1" gridSize="10" guides="1" tooltips="1" connect="1" arrows="1" fold="1" page="1" pageScale="1" pageWidth="850" pageHeight="1100" math="0" shadow="0" extFonts="Permanent Marker^https://fonts.googleapis.com/css?family=Permanent+Marker">
      <root>
        <mxCell id="0" />
        <mxCell id="1" parent="0" />
        <mxCell id="UthbeFtQHug8dCfJcB27-1" value="USER" style="whiteSpace=wrap;html=1;align=center;" vertex="1" parent="1">
          <mxGeometry x="280" y="120" width="100" height="40" as="geometry" />
        </mxCell>
        <mxCell id="UthbeFtQHug8dCfJcB27-3" value="&lt;div&gt;firstName&lt;/div&gt;&lt;div&gt;&lt;br&gt;&lt;/div&gt;" style="ellipse;whiteSpace=wrap;html=1;align=center;" vertex="1" parent="1">
          <mxGeometry x="320" y="10" width="100" height="40" as="geometry" />
        </mxCell>
        <mxCell id="UthbeFtQHug8dCfJcB27-4" value="lastName" style="ellipse;whiteSpace=wrap;html=1;align=center;rotation=-15;" vertex="1" parent="1">
          <mxGeometry x="120" y="160" width="100" height="40" as="geometry" />
        </mxCell>
        <mxCell id="UthbeFtQHug8dCfJcB27-5" value="&lt;div&gt;email&lt;/div&gt;" style="ellipse;whiteSpace=wrap;html=1;align=center;rotation=30;" vertex="1" parent="1">
          <mxGeometry x="390" y="200" width="100" height="40" as="geometry" />
        </mxCell>
        <mxCell id="UthbeFtQHug8dCfJcB27-6" value="phoneNo" style="ellipse;whiteSpace=wrap;html=1;align=center;" vertex="1" parent="1">
          <mxGeometry x="120" y="110" width="100" height="40" as="geometry" />
        </mxCell>
        <mxCell id="UthbeFtQHug8dCfJcB27-7" value="&lt;div&gt;username&lt;/div&gt;" style="ellipse;whiteSpace=wrap;html=1;align=center;" vertex="1" parent="1">
          <mxGeometry x="140" y="60" width="100" height="40" as="geometry" />
        </mxCell>
        <mxCell id="UthbeFtQHug8dCfJcB27-8" value="password" style="ellipse;whiteSpace=wrap;html=1;align=center;rotation=30;" vertex="1" parent="1">
          <mxGeometry x="450" y="180" width="100" height="40" as="geometry" />
        </mxCell>
        <mxCell id="UthbeFtQHug8dCfJcB27-9" value="roles" style="ellipse;whiteSpace=wrap;html=1;align=center;rotation=-15;" vertex="1" parent="1">
          <mxGeometry x="400" y="50" width="100" height="40" as="geometry" />
        </mxCell>
        <mxCell id="UthbeFtQHug8dCfJcB27-11" value="Flight" style="rounded=1;arcSize=10;whiteSpace=wrap;html=1;align=center;" vertex="1" parent="1">
          <mxGeometry x="270" y="430" width="100" height="40" as="geometry" />
        </mxCell>
        <mxCell id="UthbeFtQHug8dCfJcB27-12" value="flightNumber" style="ellipse;whiteSpace=wrap;html=1;align=center;rotation=30;" vertex="1" parent="1">
          <mxGeometry x="440" y="540" width="100" height="40" as="geometry" />
        </mxCell>
        <mxCell id="UthbeFtQHug8dCfJcB27-13" value="id" style="ellipse;whiteSpace=wrap;html=1;align=center;fontStyle=4;rotation=-15;" vertex="1" parent="1">
          <mxGeometry x="390" y="380" width="100" height="40" as="geometry" />
        </mxCell>
        <mxCell id="UthbeFtQHug8dCfJcB27-14" value="airline" style="ellipse;whiteSpace=wrap;html=1;align=center;rotation=15;" vertex="1" parent="1">
          <mxGeometry x="500" y="500" width="100" height="40" as="geometry" />
        </mxCell>
        <mxCell id="UthbeFtQHug8dCfJcB27-15" value="departureAirport" style="ellipse;whiteSpace=wrap;html=1;align=center;rotation=-30;" vertex="1" parent="1">
          <mxGeometry x="100" y="560" width="100" height="40" as="geometry" />
        </mxCell>
        <mxCell id="UthbeFtQHug8dCfJcB27-16" value="arrivalAirport" style="ellipse;whiteSpace=wrap;html=1;align=center;rotation=-30;" vertex="1" parent="1">
          <mxGeometry x="120" y="610" width="100" height="40" as="geometry" />
        </mxCell>
        <mxCell id="UthbeFtQHug8dCfJcB27-17" value="departureTime" style="ellipse;whiteSpace=wrap;html=1;align=center;rotation=-25;" vertex="1" parent="1">
          <mxGeometry x="110" y="500" width="100" height="40" as="geometry" />
        </mxCell>
        <mxCell id="UthbeFtQHug8dCfJcB27-18" value="arrivalTime" style="ellipse;whiteSpace=wrap;html=1;align=center;rotation=15;" vertex="1" parent="1">
          <mxGeometry x="130" y="370" width="100" height="40" as="geometry" />
        </mxCell>
        <mxCell id="UthbeFtQHug8dCfJcB27-19" value="status" style="ellipse;whiteSpace=wrap;html=1;align=center;rotation=45;" vertex="1" parent="1">
          <mxGeometry x="390" y="580" width="100" height="40" as="geometry" />
        </mxCell>
        <mxCell id="UthbeFtQHug8dCfJcB27-20" value="seats" style="ellipse;whiteSpace=wrap;html=1;align=center;rotation=60;" vertex="1" parent="1">
          <mxGeometry x="325" y="590" width="100" height="40" as="geometry" />
        </mxCell>
        <mxCell id="UthbeFtQHug8dCfJcB27-25" value="Seat" style="whiteSpace=wrap;html=1;align=center;" vertex="1" parent="1">
          <mxGeometry x="-170" y="430" width="100" height="40" as="geometry" />
        </mxCell>
        <mxCell id="UthbeFtQHug8dCfJcB27-26" value="seatClass" style="ellipse;whiteSpace=wrap;html=1;align=center;" vertex="1" parent="1">
          <mxGeometry x="-330" y="440" width="100" height="40" as="geometry" />
        </mxCell>
        <mxCell id="UthbeFtQHug8dCfJcB27-27" value="noOfSeats" style="ellipse;whiteSpace=wrap;html=1;align=center;" vertex="1" parent="1">
          <mxGeometry x="-290" y="490" width="90" height="40" as="geometry" />
        </mxCell>
        <mxCell id="UthbeFtQHug8dCfJcB27-28" value="availableSeats" style="ellipse;whiteSpace=wrap;html=1;align=center;" vertex="1" parent="1">
          <mxGeometry x="-200" y="580" width="100" height="40" as="geometry" />
        </mxCell>
        <mxCell id="UthbeFtQHug8dCfJcB27-29" value="price" style="ellipse;whiteSpace=wrap;html=1;align=center;" vertex="1" parent="1">
          <mxGeometry x="-260" y="540" width="100" height="40" as="geometry" />
        </mxCell>
        <mxCell id="UthbeFtQHug8dCfJcB27-30" value="flight" style="ellipse;whiteSpace=wrap;html=1;align=center;" vertex="1" parent="1">
          <mxGeometry x="-330" y="350" width="100" height="40" as="geometry" />
        </mxCell>
        <mxCell id="UthbeFtQHug8dCfJcB27-31" value="seatId" style="ellipse;whiteSpace=wrap;html=1;align=center;fontStyle=4;" vertex="1" parent="1">
          <mxGeometry x="-270" y="290" width="100" height="40" as="geometry" />
        </mxCell>
        <mxCell id="UthbeFtQHug8dCfJcB27-36" value="" style="endArrow=none;html=1;rounded=0;entryX=0.5;entryY=1;entryDx=0;entryDy=0;exitX=1;exitY=0;exitDx=0;exitDy=0;" edge="1" parent="1" source="UthbeFtQHug8dCfJcB27-28" target="UthbeFtQHug8dCfJcB27-25">
          <mxGeometry relative="1" as="geometry">
            <mxPoint x="-60" y="650" as="sourcePoint" />
            <mxPoint x="100" y="650" as="targetPoint" />
          </mxGeometry>
        </mxCell>
        <mxCell id="UthbeFtQHug8dCfJcB27-38" value="" style="endArrow=none;html=1;rounded=0;entryX=0.25;entryY=1;entryDx=0;entryDy=0;exitX=1;exitY=0.5;exitDx=0;exitDy=0;" edge="1" parent="1" source="UthbeFtQHug8dCfJcB27-29" target="UthbeFtQHug8dCfJcB27-25">
          <mxGeometry relative="1" as="geometry">
            <mxPoint x="-100" y="730" as="sourcePoint" />
            <mxPoint x="60" y="730" as="targetPoint" />
          </mxGeometry>
        </mxCell>
        <mxCell id="UthbeFtQHug8dCfJcB27-40" value="" style="endArrow=none;html=1;rounded=0;entryX=0;entryY=1;entryDx=0;entryDy=0;exitX=1;exitY=0.5;exitDx=0;exitDy=0;" edge="1" parent="1" source="UthbeFtQHug8dCfJcB27-27" target="UthbeFtQHug8dCfJcB27-25">
          <mxGeometry relative="1" as="geometry">
            <mxPoint x="-210" y="379.23" as="sourcePoint" />
            <mxPoint x="-50" y="379.23" as="targetPoint" />
          </mxGeometry>
        </mxCell>
        <mxCell id="UthbeFtQHug8dCfJcB27-42" value="" style="endArrow=none;html=1;rounded=0;entryX=0;entryY=0.25;entryDx=0;entryDy=0;" edge="1" parent="1" target="UthbeFtQHug8dCfJcB27-25">
          <mxGeometry relative="1" as="geometry">
            <mxPoint x="-230" y="450" as="sourcePoint" />
            <mxPoint x="-10" y="319.23" as="targetPoint" />
            <Array as="points">
              <mxPoint x="-230" y="450" />
            </Array>
          </mxGeometry>
        </mxCell>
        <mxCell id="UthbeFtQHug8dCfJcB27-43" value="" style="endArrow=none;html=1;rounded=0;entryX=0.5;entryY=0;entryDx=0;entryDy=0;exitX=0.742;exitY=1.021;exitDx=0;exitDy=0;exitPerimeter=0;" edge="1" parent="1" source="UthbeFtQHug8dCfJcB27-30" target="UthbeFtQHug8dCfJcB27-25">
          <mxGeometry relative="1" as="geometry">
            <mxPoint x="-110" y="290" as="sourcePoint" />
            <mxPoint x="50" y="290" as="targetPoint" />
          </mxGeometry>
        </mxCell>
        <mxCell id="UthbeFtQHug8dCfJcB27-44" value="" style="endArrow=none;html=1;rounded=0;entryX=0.725;entryY=0.933;entryDx=0;entryDy=0;entryPerimeter=0;exitX=0.5;exitY=0;exitDx=0;exitDy=0;" edge="1" parent="1" source="UthbeFtQHug8dCfJcB27-25" target="UthbeFtQHug8dCfJcB27-31">
          <mxGeometry relative="1" as="geometry">
            <mxPoint x="360" y="350" as="sourcePoint" />
            <mxPoint x="520" y="350" as="targetPoint" />
          </mxGeometry>
        </mxCell>
        <mxCell id="UthbeFtQHug8dCfJcB27-45" value="" style="endArrow=none;html=1;rounded=0;entryX=0.5;entryY=1;entryDx=0;entryDy=0;exitX=0.5;exitY=0;exitDx=0;exitDy=0;" edge="1" parent="1" source="UthbeFtQHug8dCfJcB27-1" target="UthbeFtQHug8dCfJcB27-3">
          <mxGeometry relative="1" as="geometry">
            <mxPoint x="360" y="350" as="sourcePoint" />
            <mxPoint x="520" y="350" as="targetPoint" />
          </mxGeometry>
        </mxCell>
        <mxCell id="UthbeFtQHug8dCfJcB27-46" value="" style="endArrow=none;html=1;rounded=0;exitX=0.75;exitY=1;exitDx=0;exitDy=0;entryX=0;entryY=0.5;entryDx=0;entryDy=0;" edge="1" parent="1" source="UthbeFtQHug8dCfJcB27-1" target="UthbeFtQHug8dCfJcB27-5">
          <mxGeometry relative="1" as="geometry">
            <mxPoint x="360" y="350" as="sourcePoint" />
            <mxPoint x="520" y="350" as="targetPoint" />
          </mxGeometry>
        </mxCell>
        <mxCell id="UthbeFtQHug8dCfJcB27-47" value="" style="endArrow=none;html=1;rounded=0;exitX=1;exitY=0.5;exitDx=0;exitDy=0;entryX=0;entryY=1;entryDx=0;entryDy=0;" edge="1" parent="1" source="UthbeFtQHug8dCfJcB27-1" target="UthbeFtQHug8dCfJcB27-8">
          <mxGeometry relative="1" as="geometry">
            <mxPoint x="360" y="350" as="sourcePoint" />
            <mxPoint x="520" y="350" as="targetPoint" />
          </mxGeometry>
        </mxCell>
        <mxCell id="UthbeFtQHug8dCfJcB27-48" value="" style="endArrow=none;html=1;rounded=0;exitX=0.628;exitY=-0.098;exitDx=0;exitDy=0;exitPerimeter=0;entryX=0;entryY=1;entryDx=0;entryDy=0;" edge="1" parent="1" source="UthbeFtQHug8dCfJcB27-11" target="UthbeFtQHug8dCfJcB27-13">
          <mxGeometry relative="1" as="geometry">
            <mxPoint x="360" y="350" as="sourcePoint" />
            <mxPoint x="520" y="350" as="targetPoint" />
          </mxGeometry>
        </mxCell>
        <mxCell id="UthbeFtQHug8dCfJcB27-49" value="" style="endArrow=none;html=1;rounded=0;exitX=0.382;exitY=-0.067;exitDx=0;exitDy=0;exitPerimeter=0;entryX=0.671;entryY=0.941;entryDx=0;entryDy=0;entryPerimeter=0;" edge="1" parent="1" source="UthbeFtQHug8dCfJcB27-11" target="UthbeFtQHug8dCfJcB27-18">
          <mxGeometry relative="1" as="geometry">
            <mxPoint x="360" y="350" as="sourcePoint" />
            <mxPoint x="520" y="350" as="targetPoint" />
          </mxGeometry>
        </mxCell>
        <mxCell id="UthbeFtQHug8dCfJcB27-50" value="" style="endArrow=none;html=1;rounded=0;exitX=1;exitY=0.5;exitDx=0;exitDy=0;entryX=0.25;entryY=1;entryDx=0;entryDy=0;" edge="1" parent="1" source="UthbeFtQHug8dCfJcB27-17" target="UthbeFtQHug8dCfJcB27-11">
          <mxGeometry relative="1" as="geometry">
            <mxPoint x="360" y="350" as="sourcePoint" />
            <mxPoint x="520" y="350" as="targetPoint" />
          </mxGeometry>
        </mxCell>
        <mxCell id="UthbeFtQHug8dCfJcB27-51" value="" style="endArrow=none;html=1;rounded=0;exitX=1;exitY=0.5;exitDx=0;exitDy=0;entryX=0.5;entryY=1;entryDx=0;entryDy=0;" edge="1" parent="1" source="UthbeFtQHug8dCfJcB27-15" target="UthbeFtQHug8dCfJcB27-11">
          <mxGeometry relative="1" as="geometry">
            <mxPoint x="360" y="350" as="sourcePoint" />
            <mxPoint x="520" y="350" as="targetPoint" />
          </mxGeometry>
        </mxCell>
        <mxCell id="UthbeFtQHug8dCfJcB27-52" value="" style="endArrow=none;html=1;rounded=0;exitX=1;exitY=0.5;exitDx=0;exitDy=0;entryX=0.5;entryY=1;entryDx=0;entryDy=0;" edge="1" parent="1" source="UthbeFtQHug8dCfJcB27-16" target="UthbeFtQHug8dCfJcB27-11">
          <mxGeometry relative="1" as="geometry">
            <mxPoint x="360" y="350" as="sourcePoint" />
            <mxPoint x="520" y="350" as="targetPoint" />
          </mxGeometry>
        </mxCell>
        <mxCell id="UthbeFtQHug8dCfJcB27-53" value="" style="endArrow=none;html=1;rounded=0;exitX=0.5;exitY=1;exitDx=0;exitDy=0;entryX=0;entryY=0.5;entryDx=0;entryDy=0;" edge="1" parent="1" source="UthbeFtQHug8dCfJcB27-11" target="UthbeFtQHug8dCfJcB27-20">
          <mxGeometry relative="1" as="geometry">
            <mxPoint x="360" y="350" as="sourcePoint" />
            <mxPoint x="520" y="350" as="targetPoint" />
          </mxGeometry>
        </mxCell>
        <mxCell id="UthbeFtQHug8dCfJcB27-54" value="" style="endArrow=none;html=1;rounded=0;exitX=1;exitY=0.25;exitDx=0;exitDy=0;entryX=0;entryY=1;entryDx=0;entryDy=0;" edge="1" parent="1" source="UthbeFtQHug8dCfJcB27-11" target="UthbeFtQHug8dCfJcB27-14">
          <mxGeometry relative="1" as="geometry">
            <mxPoint x="360" y="350" as="sourcePoint" />
            <mxPoint x="520" y="350" as="targetPoint" />
          </mxGeometry>
        </mxCell>
        <mxCell id="UthbeFtQHug8dCfJcB27-55" value="" style="endArrow=none;html=1;rounded=0;exitX=0.75;exitY=1;exitDx=0;exitDy=0;entryX=0;entryY=1;entryDx=0;entryDy=0;" edge="1" parent="1" source="UthbeFtQHug8dCfJcB27-11" target="UthbeFtQHug8dCfJcB27-19">
          <mxGeometry relative="1" as="geometry">
            <mxPoint x="360" y="350" as="sourcePoint" />
            <mxPoint x="520" y="350" as="targetPoint" />
          </mxGeometry>
        </mxCell>
        <mxCell id="UthbeFtQHug8dCfJcB27-56" value="" style="endArrow=none;html=1;rounded=0;exitX=1;exitY=0.75;exitDx=0;exitDy=0;entryX=0;entryY=0.5;entryDx=0;entryDy=0;" edge="1" parent="1" source="UthbeFtQHug8dCfJcB27-11" target="UthbeFtQHug8dCfJcB27-12">
          <mxGeometry relative="1" as="geometry">
            <mxPoint x="360" y="350" as="sourcePoint" />
            <mxPoint x="520" y="350" as="targetPoint" />
          </mxGeometry>
        </mxCell>
        <mxCell id="UthbeFtQHug8dCfJcB27-57" value="" style="endArrow=none;html=1;rounded=0;entryX=0;entryY=0.75;entryDx=0;entryDy=0;exitX=1;exitY=0.5;exitDx=0;exitDy=0;" edge="1" parent="1" source="UthbeFtQHug8dCfJcB27-4" target="UthbeFtQHug8dCfJcB27-1">
          <mxGeometry relative="1" as="geometry">
            <mxPoint x="360" y="320" as="sourcePoint" />
            <mxPoint x="520" y="320" as="targetPoint" />
          </mxGeometry>
        </mxCell>
        <mxCell id="UthbeFtQHug8dCfJcB27-58" value="" style="endArrow=none;html=1;rounded=0;exitX=1;exitY=0.5;exitDx=0;exitDy=0;entryX=0;entryY=0.5;entryDx=0;entryDy=0;" edge="1" parent="1" source="UthbeFtQHug8dCfJcB27-6" target="UthbeFtQHug8dCfJcB27-1">
          <mxGeometry relative="1" as="geometry">
            <mxPoint x="360" y="320" as="sourcePoint" />
            <mxPoint x="520" y="320" as="targetPoint" />
          </mxGeometry>
        </mxCell>
        <mxCell id="UthbeFtQHug8dCfJcB27-59" value="" style="endArrow=none;html=1;rounded=0;exitX=1;exitY=0.5;exitDx=0;exitDy=0;entryX=0;entryY=0.25;entryDx=0;entryDy=0;" edge="1" parent="1" source="UthbeFtQHug8dCfJcB27-7" target="UthbeFtQHug8dCfJcB27-1">
          <mxGeometry relative="1" as="geometry">
            <mxPoint x="360" y="320" as="sourcePoint" />
            <mxPoint x="520" y="320" as="targetPoint" />
          </mxGeometry>
        </mxCell>
        <mxCell id="UthbeFtQHug8dCfJcB27-60" value="" style="endArrow=none;html=1;rounded=0;entryX=1;entryY=1;entryDx=0;entryDy=0;exitX=0.5;exitY=0;exitDx=0;exitDy=0;" edge="1" parent="1" source="UthbeFtQHug8dCfJcB27-1">
          <mxGeometry relative="1" as="geometry">
            <mxPoint x="360" y="320" as="sourcePoint" />
            <mxPoint x="295.0295039998846" y="54.271279407360225" as="targetPoint" />
          </mxGeometry>
        </mxCell>
        <mxCell id="UthbeFtQHug8dCfJcB27-63" value="" style="endArrow=none;html=1;rounded=0;entryX=0;entryY=1;entryDx=0;entryDy=0;exitX=0.75;exitY=0;exitDx=0;exitDy=0;" edge="1" parent="1" source="UthbeFtQHug8dCfJcB27-1" target="UthbeFtQHug8dCfJcB27-9">
          <mxGeometry relative="1" as="geometry">
            <mxPoint x="360" y="110" as="sourcePoint" />
            <mxPoint x="520" y="320" as="targetPoint" />
          </mxGeometry>
        </mxCell>
        <mxCell id="UthbeFtQHug8dCfJcB27-67" value="Has" style="shape=rhombus;perimeter=rhombusPerimeter;whiteSpace=wrap;html=1;align=center;" vertex="1" parent="1">
          <mxGeometry x="20" y="420" width="120" height="60" as="geometry" />
        </mxCell>
        <mxCell id="UthbeFtQHug8dCfJcB27-72" value="" style="endArrow=none;html=1;rounded=0;entryX=1;entryY=0.5;entryDx=0;entryDy=0;exitX=0.096;exitY=0.514;exitDx=0;exitDy=0;exitPerimeter=0;" edge="1" parent="1" source="UthbeFtQHug8dCfJcB27-67" target="UthbeFtQHug8dCfJcB27-25">
          <mxGeometry relative="1" as="geometry">
            <mxPoint x="360" y="360" as="sourcePoint" />
            <mxPoint x="520" y="360" as="targetPoint" />
          </mxGeometry>
        </mxCell>
        <mxCell id="UthbeFtQHug8dCfJcB27-73" value="N" style="resizable=0;html=1;whiteSpace=wrap;align=right;verticalAlign=bottom;" connectable="0" vertex="1" parent="UthbeFtQHug8dCfJcB27-72">
          <mxGeometry x="1" relative="1" as="geometry" />
        </mxCell>
        <mxCell id="UthbeFtQHug8dCfJcB27-74" value="" style="endArrow=none;html=1;rounded=0;exitX=1;exitY=0.5;exitDx=0;exitDy=0;entryX=0;entryY=0.5;entryDx=0;entryDy=0;" edge="1" parent="1" source="UthbeFtQHug8dCfJcB27-67" target="UthbeFtQHug8dCfJcB27-11">
          <mxGeometry relative="1" as="geometry">
            <mxPoint x="360" y="360" as="sourcePoint" />
            <mxPoint x="520" y="360" as="targetPoint" />
          </mxGeometry>
        </mxCell>
        <mxCell id="UthbeFtQHug8dCfJcB27-75" value="1" style="resizable=0;html=1;whiteSpace=wrap;align=right;verticalAlign=bottom;" connectable="0" vertex="1" parent="UthbeFtQHug8dCfJcB27-74">
          <mxGeometry x="1" relative="1" as="geometry" />
        </mxCell>
        <mxCell id="UthbeFtQHug8dCfJcB27-76" value="Searchs For" style="shape=rhombus;perimeter=rhombusPerimeter;whiteSpace=wrap;html=1;align=center;" vertex="1" parent="1">
          <mxGeometry x="270" y="270" width="120" height="60" as="geometry" />
        </mxCell>
        <mxCell id="UthbeFtQHug8dCfJcB27-77" value="" style="endArrow=none;html=1;rounded=0;exitX=0.5;exitY=1;exitDx=0;exitDy=0;entryX=0.5;entryY=0;entryDx=0;entryDy=0;" edge="1" parent="1" source="UthbeFtQHug8dCfJcB27-76" target="UthbeFtQHug8dCfJcB27-11">
          <mxGeometry relative="1" as="geometry">
            <mxPoint x="360" y="360" as="sourcePoint" />
            <mxPoint x="520" y="360" as="targetPoint" />
          </mxGeometry>
        </mxCell>
        <mxCell id="UthbeFtQHug8dCfJcB27-78" value="N" style="resizable=0;html=1;whiteSpace=wrap;align=right;verticalAlign=bottom;" connectable="0" vertex="1" parent="UthbeFtQHug8dCfJcB27-77">
          <mxGeometry x="1" relative="1" as="geometry">
            <mxPoint x="5" y="1" as="offset" />
          </mxGeometry>
        </mxCell>
        <mxCell id="UthbeFtQHug8dCfJcB27-79" value="" style="endArrow=none;html=1;rounded=0;exitX=0.5;exitY=0;exitDx=0;exitDy=0;entryX=0.5;entryY=1;entryDx=0;entryDy=0;" edge="1" parent="1" source="UthbeFtQHug8dCfJcB27-76" target="UthbeFtQHug8dCfJcB27-1">
          <mxGeometry relative="1" as="geometry">
            <mxPoint x="360" y="360" as="sourcePoint" />
            <mxPoint x="520" y="360" as="targetPoint" />
          </mxGeometry>
        </mxCell>
        <mxCell id="UthbeFtQHug8dCfJcB27-80" value="1" style="resizable=0;html=1;whiteSpace=wrap;align=right;verticalAlign=bottom;" connectable="0" vertex="1" parent="UthbeFtQHug8dCfJcB27-79">
          <mxGeometry x="1" relative="1" as="geometry" />
        </mxCell>
        <mxCell id="UthbeFtQHug8dCfJcB27-82" value="id" style="ellipse;whiteSpace=wrap;html=1;align=center;fontStyle=4;" vertex="1" parent="1">
          <mxGeometry x="220" y="20" width="100" height="40" as="geometry" />
        </mxCell>
        <mxCell id="UthbeFtQHug8dCfJcB27-83" value="Booking" style="whiteSpace=wrap;html=1;align=center;" vertex="1" parent="1">
          <mxGeometry x="790" y="120" width="100" height="40" as="geometry" />
        </mxCell>
        <mxCell id="UthbeFtQHug8dCfJcB27-84" value="flightNumber" style="ellipse;whiteSpace=wrap;html=1;align=center;rotation=-20;" vertex="1" parent="1">
          <mxGeometry x="950" y="50" width="100" height="40" as="geometry" />
        </mxCell>
        <mxCell id="UthbeFtQHug8dCfJcB27-85" value="passengerBookingId" style="ellipse;whiteSpace=wrap;html=1;align=center;rotation=15;" vertex="1" parent="1">
          <mxGeometry x="930" y="190" width="130" height="50" as="geometry" />
        </mxCell>
        <mxCell id="UthbeFtQHug8dCfJcB27-86" value="&lt;div&gt;bookingId&lt;/div&gt;" style="ellipse;whiteSpace=wrap;html=1;align=center;fontStyle=4;rotation=-35;" vertex="1" parent="1">
          <mxGeometry x="880" y="-10" width="100" height="40" as="geometry" />
        </mxCell>
        <mxCell id="UthbeFtQHug8dCfJcB27-87" value="noOfSeats" style="ellipse;whiteSpace=wrap;html=1;align=center;rotation=-30;" vertex="1" parent="1">
          <mxGeometry x="680" y="210" width="100" height="40" as="geometry" />
        </mxCell>
        <mxCell id="UthbeFtQHug8dCfJcB27-88" value="bookingDate" style="ellipse;whiteSpace=wrap;html=1;align=center;rotation=-10;" vertex="1" parent="1">
          <mxGeometry x="780" width="100" height="40" as="geometry" />
        </mxCell>
        <mxCell id="UthbeFtQHug8dCfJcB27-89" value="bookingStatus" style="ellipse;whiteSpace=wrap;html=1;align=center;rotation=45;" vertex="1" parent="1">
          <mxGeometry x="670" y="10" width="100" height="40" as="geometry" />
        </mxCell>
        <mxCell id="UthbeFtQHug8dCfJcB27-90" value="passengers" style="ellipse;whiteSpace=wrap;html=1;align=center;rotation=15;" vertex="1" parent="1">
          <mxGeometry x="640" y="50" width="100" height="40" as="geometry" />
        </mxCell>
        <mxCell id="UthbeFtQHug8dCfJcB27-94" value="" style="endArrow=none;html=1;rounded=0;exitX=1;exitY=0.5;exitDx=0;exitDy=0;entryX=0.4;entryY=0.925;entryDx=0;entryDy=0;entryPerimeter=0;" edge="1" parent="1" source="UthbeFtQHug8dCfJcB27-87" target="UthbeFtQHug8dCfJcB27-83">
          <mxGeometry relative="1" as="geometry">
            <mxPoint x="730" y="280" as="sourcePoint" />
            <mxPoint x="890" y="280" as="targetPoint" />
          </mxGeometry>
        </mxCell>
        <mxCell id="UthbeFtQHug8dCfJcB27-99" value="" style="endArrow=none;html=1;rounded=0;entryX=0.058;entryY=0.223;entryDx=0;entryDy=0;entryPerimeter=0;" edge="1" parent="1" target="UthbeFtQHug8dCfJcB27-85">
          <mxGeometry relative="1" as="geometry">
            <mxPoint x="820" y="160" as="sourcePoint" />
            <mxPoint x="890" y="280" as="targetPoint" />
          </mxGeometry>
        </mxCell>
        <mxCell id="UthbeFtQHug8dCfJcB27-100" value="" style="endArrow=none;html=1;rounded=0;exitX=1;exitY=0.5;exitDx=0;exitDy=0;" edge="1" parent="1" source="UthbeFtQHug8dCfJcB27-90" target="UthbeFtQHug8dCfJcB27-83">
          <mxGeometry relative="1" as="geometry">
            <mxPoint x="730" y="280" as="sourcePoint" />
            <mxPoint x="890" y="280" as="targetPoint" />
          </mxGeometry>
        </mxCell>
        <mxCell id="UthbeFtQHug8dCfJcB27-101" value="" style="endArrow=none;html=1;rounded=0;exitX=1;exitY=0.5;exitDx=0;exitDy=0;entryX=0.5;entryY=0;entryDx=0;entryDy=0;" edge="1" parent="1" source="UthbeFtQHug8dCfJcB27-89" target="UthbeFtQHug8dCfJcB27-83">
          <mxGeometry relative="1" as="geometry">
            <mxPoint x="730" y="280" as="sourcePoint" />
            <mxPoint x="890" y="280" as="targetPoint" />
          </mxGeometry>
        </mxCell>
        <mxCell id="UthbeFtQHug8dCfJcB27-102" value="" style="endArrow=none;html=1;rounded=0;exitX=0.707;exitY=0.915;exitDx=0;exitDy=0;exitPerimeter=0;entryX=0.5;entryY=0;entryDx=0;entryDy=0;" edge="1" parent="1" source="UthbeFtQHug8dCfJcB27-88" target="UthbeFtQHug8dCfJcB27-83">
          <mxGeometry relative="1" as="geometry">
            <mxPoint x="730" y="280" as="sourcePoint" />
            <mxPoint x="890" y="280" as="targetPoint" />
          </mxGeometry>
        </mxCell>
        <mxCell id="UthbeFtQHug8dCfJcB27-103" value="" style="endArrow=none;html=1;rounded=0;entryX=0;entryY=1;entryDx=0;entryDy=0;exitX=0.5;exitY=0;exitDx=0;exitDy=0;" edge="1" parent="1" source="UthbeFtQHug8dCfJcB27-83" target="UthbeFtQHug8dCfJcB27-86">
          <mxGeometry relative="1" as="geometry">
            <mxPoint x="850" y="110" as="sourcePoint" />
            <mxPoint x="890" y="280" as="targetPoint" />
          </mxGeometry>
        </mxCell>
        <mxCell id="UthbeFtQHug8dCfJcB27-104" value="" style="endArrow=none;html=1;rounded=0;exitX=0.5;exitY=0;exitDx=0;exitDy=0;entryX=0;entryY=1;entryDx=0;entryDy=0;" edge="1" parent="1" source="UthbeFtQHug8dCfJcB27-83" target="UthbeFtQHug8dCfJcB27-84">
          <mxGeometry relative="1" as="geometry">
            <mxPoint x="730" y="280" as="sourcePoint" />
            <mxPoint x="890" y="280" as="targetPoint" />
          </mxGeometry>
        </mxCell>
        <mxCell id="UthbeFtQHug8dCfJcB27-105" value="Books" style="shape=rhombus;perimeter=rhombusPerimeter;whiteSpace=wrap;html=1;align=center;" vertex="1" parent="1">
          <mxGeometry x="540" y="110" width="120" height="60" as="geometry" />
        </mxCell>
        <mxCell id="UthbeFtQHug8dCfJcB27-106" value="" style="endArrow=none;html=1;rounded=0;exitX=1;exitY=0.5;exitDx=0;exitDy=0;entryX=0;entryY=0.5;entryDx=0;entryDy=0;" edge="1" parent="1" source="UthbeFtQHug8dCfJcB27-105" target="UthbeFtQHug8dCfJcB27-83">
          <mxGeometry relative="1" as="geometry">
            <mxPoint x="730" y="280" as="sourcePoint" />
            <mxPoint x="890" y="280" as="targetPoint" />
          </mxGeometry>
        </mxCell>
        <mxCell id="UthbeFtQHug8dCfJcB27-107" value="N" style="resizable=0;html=1;whiteSpace=wrap;align=right;verticalAlign=bottom;" connectable="0" vertex="1" parent="UthbeFtQHug8dCfJcB27-106">
          <mxGeometry x="1" relative="1" as="geometry" />
        </mxCell>
        <mxCell id="UthbeFtQHug8dCfJcB27-108" value="" style="endArrow=none;html=1;rounded=0;exitX=0;exitY=0.5;exitDx=0;exitDy=0;" edge="1" parent="1" source="UthbeFtQHug8dCfJcB27-105">
          <mxGeometry relative="1" as="geometry">
            <mxPoint x="730" y="280" as="sourcePoint" />
            <mxPoint x="380" y="140" as="targetPoint" />
          </mxGeometry>
        </mxCell>
        <mxCell id="UthbeFtQHug8dCfJcB27-109" value="1" style="resizable=0;html=1;whiteSpace=wrap;align=right;verticalAlign=bottom;" connectable="0" vertex="1" parent="UthbeFtQHug8dCfJcB27-108">
          <mxGeometry x="1" relative="1" as="geometry" />
        </mxCell>
        <mxCell id="UthbeFtQHug8dCfJcB27-110" value="PassengerDetails" style="whiteSpace=wrap;html=1;align=center;" vertex="1" parent="1">
          <mxGeometry x="1190" y="110" width="100" height="40" as="geometry" />
        </mxCell>
        <mxCell id="UthbeFtQHug8dCfJcB27-111" value="gender" style="ellipse;whiteSpace=wrap;html=1;align=center;rotation=30;" vertex="1" parent="1">
          <mxGeometry x="1310" y="230" width="100" height="40" as="geometry" />
        </mxCell>
        <mxCell id="UthbeFtQHug8dCfJcB27-112" value="seatNumber" style="ellipse;whiteSpace=wrap;html=1;align=center;rotation=30;" vertex="1" parent="1">
          <mxGeometry x="1340" y="170" width="100" height="40" as="geometry" />
        </mxCell>
        <mxCell id="UthbeFtQHug8dCfJcB27-113" value="seatClass" style="ellipse;whiteSpace=wrap;html=1;align=center;rotation=0;" vertex="1" parent="1">
          <mxGeometry x="1360" y="100" width="100" height="40" as="geometry" />
        </mxCell>
        <mxCell id="UthbeFtQHug8dCfJcB27-114" value="age" style="ellipse;whiteSpace=wrap;html=1;align=center;rotation=-15;" vertex="1" parent="1">
          <mxGeometry x="1360" y="40" width="100" height="40" as="geometry" />
        </mxCell>
        <mxCell id="UthbeFtQHug8dCfJcB27-115" value="booking" style="ellipse;whiteSpace=wrap;html=1;align=center;rotation=-15;" vertex="1" parent="1">
          <mxGeometry x="1330" width="100" height="40" as="geometry" />
        </mxCell>
        <mxCell id="UthbeFtQHug8dCfJcB27-116" value="passengerName" style="ellipse;whiteSpace=wrap;html=1;align=center;rotation=30;" vertex="1" parent="1">
          <mxGeometry x="1300" y="-100" width="100" height="40" as="geometry" />
        </mxCell>
        <mxCell id="UthbeFtQHug8dCfJcB27-117" value="passengerId" style="ellipse;whiteSpace=wrap;html=1;align=center;fontStyle=4;rotation=30;" vertex="1" parent="1">
          <mxGeometry x="1380" y="-160" width="100" height="40" as="geometry" />
        </mxCell>
        <mxCell id="UthbeFtQHug8dCfJcB27-124" value="Has" style="shape=rhombus;perimeter=rhombusPerimeter;whiteSpace=wrap;html=1;align=center;" vertex="1" parent="1">
          <mxGeometry x="970" y="110" width="120" height="60" as="geometry" />
        </mxCell>
        <mxCell id="UthbeFtQHug8dCfJcB27-125" value="" style="endArrow=none;html=1;rounded=0;exitX=0.75;exitY=1;exitDx=0;exitDy=0;entryX=0;entryY=0.5;entryDx=0;entryDy=0;" edge="1" parent="1" source="UthbeFtQHug8dCfJcB27-110" target="UthbeFtQHug8dCfJcB27-111">
          <mxGeometry relative="1" as="geometry">
            <mxPoint x="1270" y="290" as="sourcePoint" />
            <mxPoint x="1430" y="290" as="targetPoint" />
          </mxGeometry>
        </mxCell>
        <mxCell id="UthbeFtQHug8dCfJcB27-126" value="" style="endArrow=none;html=1;rounded=0;exitX=1;exitY=1;exitDx=0;exitDy=0;entryX=0;entryY=1;entryDx=0;entryDy=0;" edge="1" parent="1" source="UthbeFtQHug8dCfJcB27-110" target="UthbeFtQHug8dCfJcB27-112">
          <mxGeometry relative="1" as="geometry">
            <mxPoint x="1270" y="290" as="sourcePoint" />
            <mxPoint x="1430" y="290" as="targetPoint" />
          </mxGeometry>
        </mxCell>
        <mxCell id="UthbeFtQHug8dCfJcB27-127" value="" style="endArrow=none;html=1;rounded=0;exitX=1;exitY=0.5;exitDx=0;exitDy=0;entryX=0;entryY=0.5;entryDx=0;entryDy=0;" edge="1" parent="1" source="UthbeFtQHug8dCfJcB27-110" target="UthbeFtQHug8dCfJcB27-113">
          <mxGeometry relative="1" as="geometry">
            <mxPoint x="1300" y="130" as="sourcePoint" />
            <mxPoint x="1430" y="290" as="targetPoint" />
          </mxGeometry>
        </mxCell>
        <mxCell id="UthbeFtQHug8dCfJcB27-128" value="" style="endArrow=none;html=1;rounded=0;exitX=1;exitY=0.25;exitDx=0;exitDy=0;entryX=0;entryY=0.5;entryDx=0;entryDy=0;" edge="1" parent="1" source="UthbeFtQHug8dCfJcB27-110" target="UthbeFtQHug8dCfJcB27-114">
          <mxGeometry relative="1" as="geometry">
            <mxPoint x="1270" y="290" as="sourcePoint" />
            <mxPoint x="1430" y="290" as="targetPoint" />
          </mxGeometry>
        </mxCell>
        <mxCell id="UthbeFtQHug8dCfJcB27-129" value="" style="endArrow=none;html=1;rounded=0;exitX=0.6;exitY=0;exitDx=0;exitDy=0;exitPerimeter=0;entryX=0;entryY=1;entryDx=0;entryDy=0;" edge="1" parent="1" source="UthbeFtQHug8dCfJcB27-110" target="UthbeFtQHug8dCfJcB27-115">
          <mxGeometry relative="1" as="geometry">
            <mxPoint x="1270" y="290" as="sourcePoint" />
            <mxPoint x="1430" y="290" as="targetPoint" />
          </mxGeometry>
        </mxCell>
        <mxCell id="UthbeFtQHug8dCfJcB27-130" value="" style="endArrow=none;html=1;rounded=0;exitX=0.384;exitY=-0.032;exitDx=0;exitDy=0;exitPerimeter=0;entryX=1;entryY=1;entryDx=0;entryDy=0;" edge="1" parent="1" source="UthbeFtQHug8dCfJcB27-110" target="UthbeFtQHug8dCfJcB27-117">
          <mxGeometry relative="1" as="geometry">
            <mxPoint x="1270" y="290" as="sourcePoint" />
            <mxPoint x="1430" y="290" as="targetPoint" />
          </mxGeometry>
        </mxCell>
        <mxCell id="UthbeFtQHug8dCfJcB27-131" value="" style="endArrow=none;html=1;rounded=0;entryX=0.5;entryY=1;entryDx=0;entryDy=0;" edge="1" parent="1" target="UthbeFtQHug8dCfJcB27-116">
          <mxGeometry relative="1" as="geometry">
            <mxPoint x="1210" y="110" as="sourcePoint" />
            <mxPoint x="1430" y="290" as="targetPoint" />
          </mxGeometry>
        </mxCell>
        <mxCell id="UthbeFtQHug8dCfJcB27-132" value="" style="endArrow=none;html=1;rounded=0;exitX=0;exitY=0.5;exitDx=0;exitDy=0;" edge="1" parent="1" source="UthbeFtQHug8dCfJcB27-124">
          <mxGeometry relative="1" as="geometry">
            <mxPoint x="1270" y="290" as="sourcePoint" />
            <mxPoint x="900" y="140" as="targetPoint" />
          </mxGeometry>
        </mxCell>
        <mxCell id="UthbeFtQHug8dCfJcB27-133" value="1" style="resizable=0;html=1;whiteSpace=wrap;align=right;verticalAlign=bottom;" connectable="0" vertex="1" parent="UthbeFtQHug8dCfJcB27-132">
          <mxGeometry x="1" relative="1" as="geometry" />
        </mxCell>
        <mxCell id="UthbeFtQHug8dCfJcB27-134" value="" style="endArrow=none;html=1;rounded=0;exitX=1;exitY=0.5;exitDx=0;exitDy=0;entryX=0;entryY=0.75;entryDx=0;entryDy=0;" edge="1" parent="1" source="UthbeFtQHug8dCfJcB27-124" target="UthbeFtQHug8dCfJcB27-110">
          <mxGeometry relative="1" as="geometry">
            <mxPoint x="1270" y="290" as="sourcePoint" />
            <mxPoint x="1430" y="290" as="targetPoint" />
          </mxGeometry>
        </mxCell>
        <mxCell id="UthbeFtQHug8dCfJcB27-135" value="N" style="resizable=0;html=1;whiteSpace=wrap;align=right;verticalAlign=bottom;" connectable="0" vertex="1" parent="UthbeFtQHug8dCfJcB27-134">
          <mxGeometry x="1" relative="1" as="geometry" />
        </mxCell>
        <mxCell id="UthbeFtQHug8dCfJcB27-136" value="Payment" style="whiteSpace=wrap;html=1;align=center;" vertex="1" parent="1">
          <mxGeometry x="790" y="480" width="100" height="40" as="geometry" />
        </mxCell>
        <mxCell id="UthbeFtQHug8dCfJcB27-137" value="orderId" style="ellipse;whiteSpace=wrap;html=1;align=center;" vertex="1" parent="1">
          <mxGeometry x="990" y="460" width="100" height="40" as="geometry" />
        </mxCell>
        <mxCell id="UthbeFtQHug8dCfJcB27-138" value="amount" style="ellipse;whiteSpace=wrap;html=1;align=center;" vertex="1" parent="1">
          <mxGeometry x="990" y="530" width="100" height="40" as="geometry" />
        </mxCell>
        <mxCell id="UthbeFtQHug8dCfJcB27-139" value="receipt" style="ellipse;whiteSpace=wrap;html=1;align=center;" vertex="1" parent="1">
          <mxGeometry x="950" y="600" width="100" height="40" as="geometry" />
        </mxCell>
        <mxCell id="UthbeFtQHug8dCfJcB27-140" value="status" style="ellipse;whiteSpace=wrap;html=1;align=center;" vertex="1" parent="1">
          <mxGeometry x="820" y="610" width="100" height="40" as="geometry" />
        </mxCell>
        <mxCell id="UthbeFtQHug8dCfJcB27-141" value="passengerBookingId" style="ellipse;whiteSpace=wrap;html=1;align=center;" vertex="1" parent="1">
          <mxGeometry x="660" y="605" width="120" height="50" as="geometry" />
        </mxCell>
        <mxCell id="UthbeFtQHug8dCfJcB27-142" value="paymentId" style="ellipse;whiteSpace=wrap;html=1;align=center;" vertex="1" parent="1">
          <mxGeometry x="660" y="550" width="100" height="40" as="geometry" />
        </mxCell>
        <mxCell id="UthbeFtQHug8dCfJcB27-144" value="myOrderId" style="ellipse;whiteSpace=wrap;html=1;align=center;fontStyle=4;" vertex="1" parent="1">
          <mxGeometry x="660" y="500" width="100" height="40" as="geometry" />
        </mxCell>
        <mxCell id="UthbeFtQHug8dCfJcB27-145" value="" style="endArrow=none;html=1;rounded=0;exitX=0.386;exitY=1.01;exitDx=0;exitDy=0;exitPerimeter=0;entryX=0.441;entryY=-0.071;entryDx=0;entryDy=0;entryPerimeter=0;" edge="1" parent="1" source="UthbeFtQHug8dCfJcB27-136" target="UthbeFtQHug8dCfJcB27-140">
          <mxGeometry relative="1" as="geometry">
            <mxPoint x="830" y="540" as="sourcePoint" />
            <mxPoint x="990" y="540" as="targetPoint" />
          </mxGeometry>
        </mxCell>
        <mxCell id="UthbeFtQHug8dCfJcB27-146" value="" style="endArrow=none;html=1;rounded=0;exitX=0.5;exitY=1;exitDx=0;exitDy=0;entryX=0.011;entryY=0.338;entryDx=0;entryDy=0;entryPerimeter=0;" edge="1" parent="1" source="UthbeFtQHug8dCfJcB27-136" target="UthbeFtQHug8dCfJcB27-139">
          <mxGeometry relative="1" as="geometry">
            <mxPoint x="830" y="540" as="sourcePoint" />
            <mxPoint x="990" y="540" as="targetPoint" />
          </mxGeometry>
        </mxCell>
        <mxCell id="UthbeFtQHug8dCfJcB27-147" value="" style="endArrow=none;html=1;rounded=0;exitX=0.75;exitY=1;exitDx=0;exitDy=0;entryX=0;entryY=0.5;entryDx=0;entryDy=0;" edge="1" parent="1" source="UthbeFtQHug8dCfJcB27-136" target="UthbeFtQHug8dCfJcB27-138">
          <mxGeometry relative="1" as="geometry">
            <mxPoint x="830" y="540" as="sourcePoint" />
            <mxPoint x="990" y="540" as="targetPoint" />
          </mxGeometry>
        </mxCell>
        <mxCell id="UthbeFtQHug8dCfJcB27-148" value="" style="endArrow=none;html=1;rounded=0;exitX=1;exitY=0.5;exitDx=0;exitDy=0;" edge="1" parent="1" source="UthbeFtQHug8dCfJcB27-136" target="UthbeFtQHug8dCfJcB27-137">
          <mxGeometry relative="1" as="geometry">
            <mxPoint x="830" y="540" as="sourcePoint" />
            <mxPoint x="990" y="540" as="targetPoint" />
          </mxGeometry>
        </mxCell>
        <mxCell id="UthbeFtQHug8dCfJcB27-149" value="" style="endArrow=none;html=1;rounded=0;exitX=0.667;exitY=0;exitDx=0;exitDy=0;exitPerimeter=0;entryX=0.34;entryY=0.99;entryDx=0;entryDy=0;entryPerimeter=0;" edge="1" parent="1" source="UthbeFtQHug8dCfJcB27-141" target="UthbeFtQHug8dCfJcB27-136">
          <mxGeometry relative="1" as="geometry">
            <mxPoint x="830" y="540" as="sourcePoint" />
            <mxPoint x="900" y="480" as="targetPoint" />
          </mxGeometry>
        </mxCell>
        <mxCell id="UthbeFtQHug8dCfJcB27-150" value="" style="endArrow=none;html=1;rounded=0;exitX=0.976;exitY=0.283;exitDx=0;exitDy=0;exitPerimeter=0;entryX=0.25;entryY=1;entryDx=0;entryDy=0;" edge="1" parent="1" source="UthbeFtQHug8dCfJcB27-142" target="UthbeFtQHug8dCfJcB27-136">
          <mxGeometry relative="1" as="geometry">
            <mxPoint x="830" y="540" as="sourcePoint" />
            <mxPoint x="990" y="540" as="targetPoint" />
          </mxGeometry>
        </mxCell>
        <mxCell id="UthbeFtQHug8dCfJcB27-151" value="" style="endArrow=none;html=1;rounded=0;exitX=1;exitY=0.5;exitDx=0;exitDy=0;entryX=0;entryY=0.75;entryDx=0;entryDy=0;" edge="1" parent="1" source="UthbeFtQHug8dCfJcB27-144" target="UthbeFtQHug8dCfJcB27-136">
          <mxGeometry relative="1" as="geometry">
            <mxPoint x="830" y="540" as="sourcePoint" />
            <mxPoint x="990" y="540" as="targetPoint" />
          </mxGeometry>
        </mxCell>
        <mxCell id="UthbeFtQHug8dCfJcB27-152" value="Makes" style="shape=rhombus;perimeter=rhombusPerimeter;whiteSpace=wrap;html=1;align=center;" vertex="1" parent="1">
          <mxGeometry x="780" y="300" width="120" height="60" as="geometry" />
        </mxCell>
        <mxCell id="UthbeFtQHug8dCfJcB27-153" value="" style="endArrow=none;html=1;rounded=0;exitX=0.5;exitY=0;exitDx=0;exitDy=0;" edge="1" parent="1" source="UthbeFtQHug8dCfJcB27-152">
          <mxGeometry relative="1" as="geometry">
            <mxPoint x="740" y="320" as="sourcePoint" />
            <mxPoint x="840" y="160" as="targetPoint" />
          </mxGeometry>
        </mxCell>
        <mxCell id="UthbeFtQHug8dCfJcB27-154" value="1" style="resizable=0;html=1;whiteSpace=wrap;align=right;verticalAlign=bottom;" connectable="0" vertex="1" parent="UthbeFtQHug8dCfJcB27-153">
          <mxGeometry x="1" relative="1" as="geometry" />
        </mxCell>
        <mxCell id="UthbeFtQHug8dCfJcB27-159" value="" style="endArrow=none;html=1;rounded=0;entryX=0.5;entryY=0;entryDx=0;entryDy=0;" edge="1" parent="1" source="UthbeFtQHug8dCfJcB27-152" target="UthbeFtQHug8dCfJcB27-136">
          <mxGeometry relative="1" as="geometry">
            <mxPoint x="740" y="320" as="sourcePoint" />
            <mxPoint x="900" y="320" as="targetPoint" />
          </mxGeometry>
        </mxCell>
        <mxCell id="UthbeFtQHug8dCfJcB27-160" value="1" style="resizable=0;html=1;whiteSpace=wrap;align=right;verticalAlign=bottom;" connectable="0" vertex="1" parent="UthbeFtQHug8dCfJcB27-159">
          <mxGeometry x="1" relative="1" as="geometry" />
        </mxCell>
        <mxCell id="UthbeFtQHug8dCfJcB27-161" value="CheckIn" style="whiteSpace=wrap;html=1;align=center;" vertex="1" parent="1">
          <mxGeometry x="770" y="-310" width="100" height="40" as="geometry" />
        </mxCell>
        <mxCell id="UthbeFtQHug8dCfJcB27-162" value="id" style="ellipse;whiteSpace=wrap;html=1;align=center;fontStyle=4;" vertex="1" parent="1">
          <mxGeometry x="970" y="-270" width="100" height="40" as="geometry" />
        </mxCell>
        <mxCell id="UthbeFtQHug8dCfJcB27-163" value="passengerId" style="ellipse;whiteSpace=wrap;html=1;align=center;" vertex="1" parent="1">
          <mxGeometry x="600" y="-250" width="100" height="40" as="geometry" />
        </mxCell>
        <mxCell id="UthbeFtQHug8dCfJcB27-164" value="passengerName" style="ellipse;whiteSpace=wrap;html=1;align=center;" vertex="1" parent="1">
          <mxGeometry x="590" y="-310" width="100" height="40" as="geometry" />
        </mxCell>
        <mxCell id="UthbeFtQHug8dCfJcB27-165" value="seatNumber" style="ellipse;whiteSpace=wrap;html=1;align=center;" vertex="1" parent="1">
          <mxGeometry x="960" y="-320" width="100" height="40" as="geometry" />
        </mxCell>
        <mxCell id="UthbeFtQHug8dCfJcB27-166" value="seatClass" style="ellipse;whiteSpace=wrap;html=1;align=center;" vertex="1" parent="1">
          <mxGeometry x="940" y="-380" width="100" height="40" as="geometry" />
        </mxCell>
        <mxCell id="UthbeFtQHug8dCfJcB27-167" value="bookingId" style="ellipse;whiteSpace=wrap;html=1;align=center;" vertex="1" parent="1">
          <mxGeometry x="910" y="-430" width="100" height="40" as="geometry" />
        </mxCell>
        <mxCell id="UthbeFtQHug8dCfJcB27-168" value="flightNumber" style="ellipse;whiteSpace=wrap;html=1;align=center;" vertex="1" parent="1">
          <mxGeometry x="780" y="-450" width="100" height="40" as="geometry" />
        </mxCell>
        <mxCell id="UthbeFtQHug8dCfJcB27-169" value="checkInTime" style="ellipse;whiteSpace=wrap;html=1;align=center;" vertex="1" parent="1">
          <mxGeometry x="670" y="-430" width="100" height="40" as="geometry" />
        </mxCell>
        <mxCell id="UthbeFtQHug8dCfJcB27-171" value="checkedIn" style="ellipse;whiteSpace=wrap;html=1;align=center;" vertex="1" parent="1">
          <mxGeometry x="630" y="-370" width="100" height="40" as="geometry" />
        </mxCell>
        <mxCell id="UthbeFtQHug8dCfJcB27-174" value="" style="endArrow=none;html=1;rounded=0;exitX=1;exitY=0.5;exitDx=0;exitDy=0;" edge="1" parent="1" source="UthbeFtQHug8dCfJcB27-161">
          <mxGeometry relative="1" as="geometry">
            <mxPoint x="440" y="-30" as="sourcePoint" />
            <mxPoint x="960" y="-250" as="targetPoint" />
          </mxGeometry>
        </mxCell>
        <mxCell id="UthbeFtQHug8dCfJcB27-175" value="" style="endArrow=none;html=1;rounded=0;" edge="1" parent="1">
          <mxGeometry relative="1" as="geometry">
            <mxPoint x="870" y="-300" as="sourcePoint" />
            <mxPoint x="960" y="-300" as="targetPoint" />
          </mxGeometry>
        </mxCell>
        <mxCell id="UthbeFtQHug8dCfJcB27-176" value="" style="endArrow=none;html=1;rounded=0;entryX=0;entryY=0.5;entryDx=0;entryDy=0;" edge="1" parent="1" target="UthbeFtQHug8dCfJcB27-166">
          <mxGeometry relative="1" as="geometry">
            <mxPoint x="850" y="-310" as="sourcePoint" />
            <mxPoint x="1010" y="-310" as="targetPoint" />
          </mxGeometry>
        </mxCell>
        <mxCell id="UthbeFtQHug8dCfJcB27-177" value="" style="endArrow=none;html=1;rounded=0;entryX=1;entryY=0;entryDx=0;entryDy=0;" edge="1" parent="1" target="UthbeFtQHug8dCfJcB27-163">
          <mxGeometry relative="1" as="geometry">
            <mxPoint x="790" y="-270" as="sourcePoint" />
            <mxPoint x="950" y="-270" as="targetPoint" />
          </mxGeometry>
        </mxCell>
        <mxCell id="UthbeFtQHug8dCfJcB27-178" value="" style="endArrow=none;html=1;rounded=0;entryX=0.5;entryY=0;entryDx=0;entryDy=0;" edge="1" parent="1" target="UthbeFtQHug8dCfJcB27-161">
          <mxGeometry relative="1" as="geometry">
            <mxPoint x="830" y="-420" as="sourcePoint" />
            <mxPoint x="990" y="-420" as="targetPoint" />
          </mxGeometry>
        </mxCell>
        <mxCell id="UthbeFtQHug8dCfJcB27-179" value="" style="endArrow=none;html=1;rounded=0;" edge="1" parent="1">
          <mxGeometry relative="1" as="geometry">
            <mxPoint x="850" y="-310" as="sourcePoint" />
            <mxPoint x="930" y="-390" as="targetPoint" />
          </mxGeometry>
        </mxCell>
        <mxCell id="UthbeFtQHug8dCfJcB27-180" value="" style="endArrow=none;html=1;rounded=0;exitX=1;exitY=1;exitDx=0;exitDy=0;entryX=0.5;entryY=0;entryDx=0;entryDy=0;" edge="1" parent="1" source="UthbeFtQHug8dCfJcB27-169" target="UthbeFtQHug8dCfJcB27-161">
          <mxGeometry relative="1" as="geometry">
            <mxPoint x="440" y="-30" as="sourcePoint" />
            <mxPoint x="600" y="-30" as="targetPoint" />
          </mxGeometry>
        </mxCell>
        <mxCell id="UthbeFtQHug8dCfJcB27-181" value="" style="endArrow=none;html=1;rounded=0;" edge="1" parent="1">
          <mxGeometry relative="1" as="geometry">
            <mxPoint x="690" y="-290" as="sourcePoint" />
            <mxPoint x="770" y="-290" as="targetPoint" />
          </mxGeometry>
        </mxCell>
        <mxCell id="UthbeFtQHug8dCfJcB27-182" value="" style="endArrow=none;html=1;rounded=0;entryX=0;entryY=0.25;entryDx=0;entryDy=0;" edge="1" parent="1" target="UthbeFtQHug8dCfJcB27-161">
          <mxGeometry relative="1" as="geometry">
            <mxPoint x="720" y="-340" as="sourcePoint" />
            <mxPoint x="880" y="-340" as="targetPoint" />
          </mxGeometry>
        </mxCell>
        <mxCell id="UthbeFtQHug8dCfJcB27-184" value="does" style="shape=rhombus;perimeter=rhombusPerimeter;whiteSpace=wrap;html=1;align=center;rotation=-45;" vertex="1" parent="1">
          <mxGeometry x="920" y="-150" width="120" height="60" as="geometry" />
        </mxCell>
        <mxCell id="UthbeFtQHug8dCfJcB27-187" value="" style="endArrow=none;html=1;rounded=0;exitX=0.5;exitY=0;exitDx=0;exitDy=0;" edge="1" parent="1" source="UthbeFtQHug8dCfJcB27-184">
          <mxGeometry relative="1" as="geometry">
            <mxPoint x="440" y="-30" as="sourcePoint" />
            <mxPoint x="830" y="-260" as="targetPoint" />
          </mxGeometry>
        </mxCell>
        <mxCell id="UthbeFtQHug8dCfJcB27-188" value="1" style="resizable=0;html=1;whiteSpace=wrap;align=right;verticalAlign=bottom;" connectable="0" vertex="1" parent="UthbeFtQHug8dCfJcB27-187">
          <mxGeometry x="1" relative="1" as="geometry" />
        </mxCell>
        <mxCell id="UthbeFtQHug8dCfJcB27-191" value="" style="endArrow=none;html=1;rounded=0;exitX=0.459;exitY=0.964;exitDx=0;exitDy=0;exitPerimeter=0;entryX=0;entryY=0;entryDx=0;entryDy=0;" edge="1" parent="1" source="UthbeFtQHug8dCfJcB27-184" target="UthbeFtQHug8dCfJcB27-110">
          <mxGeometry relative="1" as="geometry">
            <mxPoint x="1030" y="-120" as="sourcePoint" />
            <mxPoint x="1200" y="100" as="targetPoint" />
          </mxGeometry>
        </mxCell>
        <mxCell id="UthbeFtQHug8dCfJcB27-192" value="1" style="resizable=0;html=1;whiteSpace=wrap;align=right;verticalAlign=bottom;" connectable="0" vertex="1" parent="UthbeFtQHug8dCfJcB27-191">
          <mxGeometry x="1" relative="1" as="geometry" />
        </mxCell>
      </root>
    </mxGraphModel>
  </diagram>
</mxfile>
